0
SECTION
2
HEADER
9
$INSUNITS
70
4
9
$ACADVER
1
AC1014
9
$HANDSEED
5
FFFF
0
ENDSEC
0
SECTION
2
TABLES
0
TABLE
2
VPORT
5
8
100
AcDbSymbolTable
0
ENDTAB
0
TABLE
2
LTYPE
5
5
100
AcDbSymbolTable
0
LTYPE
5
14
100
AcDbSymbolTableRecord
100
AcDbLinetypeTableRecord
2
BYBLOCK
70
0
0
LTYPE
5
15
100
AcDbSymbolTableRecord
100
AcDbLinetypeTableRecord
2
BYLAYER
70
0
0
LTYPE
5
16
100
AcDbSymbolTableRecord
100
AcDbLinetypeTableRecord
2
DASHED
70
0
3
Dashed __ __ __ __ __ __ __ __ __ __ __ __ __ _
72
65
73
2
40
0.75
49
0.5
74
0
49
-0.25
74
0
0
ENDTAB
0
TABLE
2
LAYER
5
2
100
AcDbSymbolTable
70
2
0
LAYER
5
50
100
AcDbSymbolTableRecord
100
AcDbLayerTableRecord
2
0
70
0
62
7
6
CONTINUOUS
0
ENDTAB
0
TABLE
2
STYLE
5
3
100
AcDbSymbolTable
70
1
0
STYLE
5
11
100
AcDbSymbolTableRecord
100
AcDbTextStyleTableRecord
2
STANDARD
70
0
0
ENDTAB
0
TABLE
2
VIEW
5
6
100
AcDbSymbolTable
70
0
0
ENDTAB
0
TABLE
2
UCS
5
7
100
AcDbSymbolTable
70
0
0
ENDTAB
0
TABLE
2
APPID
5
9
100
AcDbSymbolTable
70
2
0
APPID
5
12
100
AcDbSymbolTableRecord
100
AcDbRegAppTableRecord
2
ACAD
70
0
0
ENDTAB
0
TABLE
2
DIMSTYLE
5
A
100
AcDbSymbolTable
70
1
0
ENDTAB
0
TABLE
2
BLOCK_RECORD
5
1
100
AcDbSymbolTable
70
1
0
BLOCK_RECORD
5
1F
100
AcDbSymbolTableRecord
100
AcDbBlockTableRecord
2
*MODEL_SPACE
0
BLOCK_RECORD
5
1B
100
AcDbSymbolTableRecord
100
AcDbBlockTableRecord
2
*PAPER_SPACE
0
ENDTAB
0
ENDSEC
0
SECTION
2
BLOCKS
0
BLOCK
5
20
100
AcDbEntity
100
AcDbBlockBegin
2
*MODEL_SPACE
0
ENDBLK
5
21
100
AcDbEntity
100
AcDbBlockEnd
0
BLOCK
5
1C
100
AcDbEntity
100
AcDbBlockBegin
2
*PAPER_SPACE
0
ENDBLK
5
1D
100
AcDbEntity
100
AcDbBlockEnd
0
ENDSEC
0
SECTION
2
ENTITIES
0
LWPOLYLINE
5
100
100
AcDbEntity
8
0
100
AcDbPolyline
90
8
70
1
43
0.0
10
-48.001504914032871
20
-67.989371311294818
10
-48.001504914032864
20
-126.98937131127914
42
-0.41421356237309592
10
-51.00150491401881
20
-129.98937131126507
10
-95.001504914053214
20
-129.98937131126507
42
-0.41421356237309159
10
-98.001504914044645
20
-126.98937131127366
10
-98.001504914044659
20
-67.989371311287087
42
-0.41421356237309159
10
-95.001504914035365
20
-64.989371311277807
10
-51.001504914049889
20
-64.989371311277807
42
-0.4142135623730942
0
CIRCLE
5
101
100
AcDbEntity
8
0
100
AcDbCircle
10
-99.40150491401937
20
-49.989371311265089
30
0
40
2.2499999999999964
210
0
220
-0
230
1
0
CIRCLE
5
102
100
AcDbEntity
8
0
100
AcDbCircle
10
-46.601504914019365
20
-49.989371311265089
30
0
40
2.2499999999999964
210
0
220
-0
230
1
0
CIRCLE
5
103
100
AcDbEntity
8
0
100
AcDbCircle
10
-99.40150491401937
20
-161.98937131127781
30
0
40
2.2499999999999964
210
0
220
-0
230
1
0
CIRCLE
5
104
100
AcDbEntity
8
0
100
AcDbCircle
10
-46.601504914019365
20
-161.98937131127781
30
0
40
2.2499999999999964
210
0
220
-0
230
1
0
LWPOLYLINE
5
105
100
AcDbEntity
8
0
100
AcDbPolyline
90
23
70
1
43
0.0
10
-133.00150491403528
20
-196.98937131127366
42
0.41421356237309503
10
-130.00150491403528
20
-199.98937131127366
10
-36.001504914062181
20
-199.98937131127366
42
0.4142135623730942
10
-33.001504914061009
20
-196.98937131127249
10
-33.001504914019357
20
-55.989371311266396
42
0.41421356237309503
10
-36.001504914019371
20
-52.989371311266389
10
-38.001504914019357
20
-52.989371311263056
10
-38.001504914019357
20
-47.989371311265032
42
0.41421356237309503
10
-41.001504914019371
20
-44.989371311265018
10
-51.004788611783809
20
-44.989371311265089
10
-51.004792114937572
20
-42.989367107467736
42
0.4142131519519085
10
-54.004792114934645
20
-39.98937131126506
10
-92.000000821868127
20
-39.989371311265081
42
0.41421356233662499
10
-95.000000821868127
20
-42.989371310891514
10
-95.00000141561938
20
-44.989371311265089
10
-105.0015049140279
20
-44.989371311265096
42
0.4142135623730378
10
-108.00150491402789
20
-47.989371311264499
10
-108.00150491402924
20
-52.989371311266396
10
-110.00150491402758
20
-52.9893713112629
42
0.41421356237309503
10
-113.00150491402755
20
-55.989371311262872
10
-113.00150491403312
20
-149.98937131127474
10
-130.00150491403093
20
-149.98937131127047
42
0.41421356237309681
10
-133.00150491403528
20
-152.98937131127479
0
ENDSEC
0
SECTION
2
OBJECTS
0
DICTIONARY
5
C
100
AcDbDictionary
3
ACAD_GROUP
350
D
3
ACAD_MLINESTYLE
350
17
0
DICTIONARY
5
D
100
AcDbDictionary
0
DICTIONARY
5
1A
330
C
100
AcDbDictionary
0
DICTIONARY
5
17
100
AcDbDictionary
0
ENDSEC
0
EOF
